<?xml version="1.0" encoding="iso-8859-1"?>
<!-- Generator: Adobe Illustrator 16.0.0, SVG Export Plug-In . SVG Version: 6.00 Build 0)  -->
<!DOCTYPE svg PUBLIC "-//W3C//DTD SVG 1.1//EN" "http://www.w3.org/Graphics/SVG/1.1/DTD/svg11.dtd">
<svg version="1.1" id="Layer_1" xmlns="http://www.w3.org/2000/svg" xmlns:xlink="http://www.w3.org/1999/xlink" x="0px" y="0px"
	 width="384px" height="384px" viewBox="0 0 384 384" style="enable-background:new 0 0 384 384;" xml:space="preserve">
<g>
	<defs>
		<rect id="SVGID_1_" width="384" height="384"/>
	</defs>
	<clipPath id="SVGID_2_">
		<use xlink:href="#SVGID_1_"  style="overflow:visible;"/>
	</clipPath>
	<path style="clip-path:url(#SVGID_2_);fill:#3C2515;" d="M203.25,79.5c0,6.215-5.035,11.25-11.25,11.25s-11.25-5.035-11.25-11.25
		s5.035-11.25,11.25-11.25S203.25,73.285,203.25,79.5"/>
	<path style="clip-path:url(#SVGID_2_);fill:#3C2515;" d="M293.25,79.5c0,6.215-5.035,11.25-11.25,11.25s-11.25-5.035-11.25-11.25
		s5.035-11.25,11.25-11.25S293.25,73.285,293.25,79.5"/>
	<path style="clip-path:url(#SVGID_2_);fill:#3C2515;" d="M248.25,57c0,6.215-5.035,11.25-11.25,11.25S225.75,63.215,225.75,57
		s5.035-11.25,11.25-11.25S248.25,50.785,248.25,57"/>
	<path style="clip-path:url(#SVGID_2_);fill:#3C2515;" d="M158.25,57c0,6.215-5.035,11.25-11.25,11.25S135.75,63.215,135.75,57
		s5.035-11.25,11.25-11.25S158.25,50.785,158.25,57"/>
	<path style="clip-path:url(#SVGID_2_);fill:#3C2515;" d="M113.25,79.5c0,6.215-5.035,11.25-11.25,11.25S90.75,85.715,90.75,79.5
		S95.785,68.25,102,68.25S113.25,73.285,113.25,79.5"/>
	<path style="clip-path:url(#SVGID_2_);fill:#3C2515;" d="M384,225.75c0-21.195-14.738-39.008-34.5-43.75v-23.75
		c6.215,0,11.25-5.035,11.25-11.25v-23.25C360.75,55.516,305.234,0,237,0h-90C78.766,0,23.25,55.516,23.25,123.75V147
		c0,6.215,5.035,11.25,11.25,11.25V182C14.738,186.742,0,204.555,0,225.75s14.738,39.008,34.5,43.75v23.75
		c-6.215,0-11.25,5.035-11.25,11.25v23.25c0,31.016,25.234,56.25,56.25,56.25h225c31.016,0,56.25-25.234,56.25-56.25V304.5
		c0-5.961-4.637-10.824-10.5-11.211v-23.961C369.637,264.316,384,246.68,384,225.75 M293.25,270.75h34.5v22.5h-34.5V270.75z
		 M361.5,225.75c0,12.406-10.094,22.5-22.5,22.5h-45.75v-45H339C351.406,203.25,361.5,213.344,361.5,225.75 M45.75,123.75
		C45.75,67.922,91.172,22.5,147,22.5h90c55.828,0,101.25,45.422,101.25,101.25v12H45.75V123.75z M327,158.25v22.5h-45
		c-6.215,0-11.25,5.035-11.25,11.25v112.5c0,6.203-5.047,11.25-11.25,11.25s-11.25-5.047-11.25-11.25V192
		c0-6.215-5.035-11.25-11.25-11.25h-67.5c-6.215,0-11.25,5.035-11.25,11.25c0,6.203-5.047,11.25-11.25,11.25
		s-11.25-5.047-11.25-11.25c0-6.215-5.035-11.25-11.25-11.25H57v-22.5H327z M22.5,225.75c0-12.406,10.094-22.5,22.5-22.5h70.176
		c4.644,13.098,17.156,22.5,31.824,22.5s27.18-9.402,31.824-22.5h46.926v45H45C32.594,248.25,22.5,238.156,22.5,225.75 M57,270.75
		h168.75v22.5H57V270.75z M338.25,327.75c0,18.609-15.141,33.75-33.75,33.75h-225c-18.609,0-33.75-15.141-33.75-33.75v-12h181.934
		c4.645,13.094,17.148,22.5,31.816,22.5s27.172-9.406,31.816-22.5h46.934V327.75z"/>
</g>
</svg>
