<?xml version="1.0" encoding="iso-8859-1"?>
<!-- Generator: Adobe Illustrator 16.0.0, SVG Export Plug-In . SVG Version: 6.00 Build 0)  -->
<!DOCTYPE svg PUBLIC "-//W3C//DTD SVG 1.1//EN" "http://www.w3.org/Graphics/SVG/1.1/DTD/svg11.dtd">
<svg version="1.1" id="Layer_1" xmlns="http://www.w3.org/2000/svg" xmlns:xlink="http://www.w3.org/1999/xlink" x="0px" y="0px"
	 width="128px" height="100px" viewBox="0 0 128 100" style="enable-background:new 0 0 128 100;" xml:space="preserve">
<g>
	<defs>
		<rect id="SVGID_1_" width="128" height="100"/>
	</defs>
	<clipPath id="SVGID_2_">
		<use xlink:href="#SVGID_1_"  style="overflow:visible;"/>
	</clipPath>
	<path style="clip-path:url(#SVGID_2_);fill:#412212;" d="M54.633,95.043c-0.658,0-1.303,0.263-1.768,0.726
		c-0.465,0.461-0.732,1.097-0.732,1.747c0,0.654,0.268,1.292,0.732,1.753c0.465,0.459,1.109,0.725,1.768,0.725
		c0.657,0,1.302-0.266,1.768-0.725c0.465-0.461,0.732-1.099,0.732-1.753c0-0.65-0.268-1.286-0.732-1.747
		C55.935,95.306,55.29,95.043,54.633,95.043"/>
	<path style="clip-path:url(#SVGID_2_);fill:#412212;" d="M104.427,53.489l-1.797-8.036c0.301,0.037,0.605,0.058,0.915,0.058h5
		c1.381,0,2.5-1.108,2.5-2.475v-9.9c0-1.367-1.119-2.475-2.5-2.475h-5c-1.457,0-2.817,0.415-3.97,1.129l-0.975-4.359
		c3.045-0.409,5.399-2.997,5.399-6.122v-4.47c0-3.408-2.8-6.18-6.242-6.18H83c-2.651,0-4.921,1.646-5.824,3.96H71.25
		c-3.584,0-6.5,2.887-6.5,6.435c0,3.548,2.916,6.436,6.5,6.436h12.868v4.987c0,1.367,1.119,2.475,2.5,2.475s2.5-1.108,2.5-2.475
		v-4.987h4.375l6.275,28.071L87.892,76.503c-1.298,2.28-3.745,3.695-6.389,3.695H51.854C50.612,69.895,41.737,61.877,31,61.877
		c-4.751,0-9.233,1.532-12.963,4.43c-0.005,0.003-0.01,0.007-0.015,0.011c-4.44,3.458-7.231,8.42-7.882,13.881H5.006
		c0.326-17.792,15.048-32.167,33.096-32.167h13.734c1.399,0,2.539,1.127,2.539,2.514v22.228c0,1.367,1.119,2.476,2.5,2.476h17.303
		c5.427,0,10.428-2.922,13.051-7.623c1.214-2.175,1.857-4.639,1.859-7.123l0.013-8.223c0.002-1.368-1.116-2.477-2.497-2.479h-0.003
		c-1.379,0-2.498,1.104-2.5,2.472l-0.013,8.225c-0.001,1.65-0.429,3.288-1.235,4.733c-1.744,3.125-5.068,5.067-8.675,5.067H59.375
		V50.545c0-2.058-0.846-3.923-2.21-5.275c1.372-1.495,2.21-3.479,2.21-5.654c0-2.458-1.069-4.671-2.771-6.211
		c0.336-0.664,0.529-1.412,0.529-2.204V4.95c0-2.729-2.243-4.95-5-4.95H25.617c-2.757,0-5,2.221-5,4.95v14.355H10.022
		c-1.381,0-2.5,1.108-2.5,2.475c0,1.368,1.119,2.475,2.5,2.475h10.595v6.946H2.5c-1.381,0-2.5,1.108-2.5,2.475
		s1.119,2.475,2.5,2.475h16.632c-0.484,1.058-0.757,2.231-0.757,3.465c0,2.889,1.479,5.442,3.726,6.958
		C9.063,52.571,0,65.659,0,80.804v1.871c0,1.367,1.119,2.475,2.5,2.475h14.05c-0.032,0.159-0.05,0.325-0.05,0.495
		c0,3.592,1.343,6.877,3.554,9.397H10.022c-1.381,0-2.5,1.107-2.5,2.475c0,1.368,1.119,2.476,2.5,2.476h20.688
		C30.808,99.994,30.903,100,31,100c7.995,0,14.5-6.44,14.5-14.355c0-0.17-0.018-0.336-0.05-0.495h36.053
		c3.937,0,7.615-1.867,9.921-4.958h3.166c-0.712,1.715-1.09,3.563-1.09,5.453c0,3.592,1.343,6.877,3.554,9.397H64.633
		c-1.381,0-2.5,1.107-2.5,2.475c0,1.368,1.119,2.476,2.5,2.476h43.078C107.808,99.994,107.903,100,108,100
		c7.995,0,14.5-6.44,14.5-14.355c0-1.89-0.378-3.738-1.09-5.453h4.09c1.381,0,2.5-1.107,2.5-2.475
		C128,64.652,117.507,53.968,104.427,53.489 M103.545,35.611h2.5v4.95h-2.5c-1.379,0-2.5-1.11-2.5-2.475
		C101.045,36.722,102.166,35.611,103.545,35.611 M41.595,10.4h-5.506V4.95h5.506V10.4z M25.617,4.95h5.472v7.925
		c0,1.367,1.12,2.476,2.5,2.476h10.506c1.381,0,2.5-1.108,2.5-2.476V4.95h5.538l0.004,26.251h-0.004H25.617V4.95z M26.875,43.082
		c-1.93,0-3.5-1.555-3.5-3.465c0-1.91,1.57-3.465,3.5-3.465h24c1.93,0,3.5,1.555,3.5,3.465c0,1.911-1.57,3.465-3.5,3.465H26.875z
		 M40.5,85.645c0,5.154-4.21,9.352-9.403,9.402c-0.032-0.001-0.064-0.005-0.097-0.005h-0.288c-5.105-0.151-9.212-4.308-9.212-9.397
		c0-0.17-0.018-0.336-0.05-0.495h19.1C40.518,85.309,40.5,85.475,40.5,85.645 M15.186,80.199c0.619-3.932,2.705-7.484,5.927-9.989
		c0.008-0.005,0.015-0.011,0.022-0.017c2.838-2.203,6.249-3.367,9.865-3.367c7.977,0,14.608,5.807,15.813,13.373H15.186z
		 M69.75,21.053c0-0.818,0.673-1.485,1.5-1.485h5.508v1.74c0,0.422,0.043,0.833,0.124,1.23H71.25
		C70.423,22.539,69.75,21.872,69.75,21.053 M86.618,22.539H83c-0.685,0-1.242-0.551-1.242-1.23v-4.47c0-0.679,0.558-1.23,1.242-1.23
		h14.758c0.685,0,1.242,0.551,1.242,1.23v4.47c0,0.679-0.558,1.23-1.242,1.23H86.618z M117.5,85.645c0,5.154-4.21,9.352-9.403,9.402
		c-0.032-0.001-0.064-0.005-0.097-0.005h-0.288c-5.105-0.151-9.212-4.308-9.212-9.397c0-1.966,0.619-3.867,1.76-5.453h15.48
		C116.881,81.777,117.5,83.679,117.5,85.645 M116.936,75.242H94.341l9.533-16.812c9.736,0.178,17.751,7.454,18.967,16.812H116.936z"
		/>
	<path style="clip-path:url(#SVGID_2_);fill:#412212;" d="M86.618,44.852c1.381,0,2.5-1.107,2.5-2.475
		c0-1.367-1.119-2.475-2.5-2.475h-0.009c-1.381,0-2.496,1.108-2.496,2.475C84.113,43.744,85.237,44.852,86.618,44.852"/>
</g>
</svg>
